<?xml version="1.0" encoding="UTF-8" standalone="no"?>
<!-- Created with Inkscape (http://www.inkscape.org/) -->

<svg
   xmlns:dc="http://purl.org/dc/elements/1.1/"
   xmlns:cc="http://creativecommons.org/ns#"
   xmlns:rdf="http://www.w3.org/1999/02/22-rdf-syntax-ns#"
   xmlns:svg="http://www.w3.org/2000/svg"
   xmlns="http://www.w3.org/2000/svg"
   xmlns:xlink="http://www.w3.org/1999/xlink"
   xmlns:sodipodi="http://sodipodi.sourceforge.net/DTD/sodipodi-0.dtd"
   xmlns:inkscape="http://www.inkscape.org/namespaces/inkscape"
   width="141.11111mm"
   height="141.11111mm"
   viewBox="0 0 500.00001 500.00001"
   id="svg13894"
   version="1.1"
   inkscape:version="0.91 r13725"
   sodipodi:docname="N2i_logo-color-light.svg">
  <defs
     id="defs13896">
    <linearGradient
       id="linearGradient3435-5">
      <stop
         style="stop-color:#e2e2e2;stop-opacity:1"
         offset="0"
         id="stop3437-5" />
      <stop
         style="stop-color:#ffffff;stop-opacity:1"
         offset="1"
         id="stop3439-8" />
    </linearGradient>
    <linearGradient
       inkscape:collect="always"
       xlink:href="#linearGradient3435-5"
       id="linearGradient13676"
       gradientUnits="userSpaceOnUse"
       gradientTransform="matrix(2.5125628,0,0,2.5125628,4279.4183,-106.01619)"
       x1="-1607.939"
       y1="-35.775589"
       x2="-1423.939"
       y2="159.22441" />
  </defs>
  <sodipodi:namedview
     id="base"
     pagecolor="#ffffff"
     bordercolor="#666666"
     borderopacity="1.0"
     inkscape:pageopacity="0.0"
     inkscape:pageshadow="2"
     inkscape:zoom="0.7"
     inkscape:cx="284.55924"
     inkscape:cy="175.42179"
     inkscape:document-units="px"
     inkscape:current-layer="layer1"
     showgrid="false"
     inkscape:window-width="1440"
     inkscape:window-height="856"
     inkscape:window-x="44"
     inkscape:window-y="68"
     inkscape:window-maximized="0"
     inkscape:snap-global="false"
     fit-margin-top="0"
     fit-margin-left="0"
     fit-margin-right="0"
     fit-margin-bottom="0">
    <inkscape:grid
       type="xygrid"
       id="grid13847"
       originx="-216.75763"
       originy="-744.49768" />
  </sodipodi:namedview>
  <metadata
     id="metadata13899">
    <rdf:RDF>
      <cc:Work
         rdf:about="">
        <dc:format>image/svg+xml</dc:format>
        <dc:type
           rdf:resource="http://purl.org/dc/dcmitype/StillImage" />
        <dc:title></dc:title>
      </cc:Work>
    </rdf:RDF>
  </metadata>
  <g
     inkscape:label="Calque 1"
     inkscape:groupmode="layer"
     id="layer1"
     transform="translate(-216.75763,192.13545)">
    <rect
       style="display:inline;fill:url(#linearGradient13676);fill-opacity:1;fill-rule:nonzero;stroke:none"
       id="rect13674"
       width="500"
       height="500"
       x="216.75763"
       y="-192.13545"
       ry="0.38908353"
       inkscape:export-filename="/Users/celineauzias/Dropbox/artwork/N2I/stickers/carre/png/N2i_titre_carre_HD.png"
       inkscape:export-xdpi="108"
       inkscape:export-ydpi="108" />
    <path
       style="opacity:1;fill:#eac531;fill-opacity:1;fill-rule:nonzero;stroke:none;stroke-width:9.02935505;stroke-linecap:round;stroke-linejoin:round;stroke-miterlimit:4;stroke-dasharray:none;stroke-dashoffset:0;stroke-opacity:1"
       d="m 437.83932,-161.32494 a 14.960308,31.129328 80.416557 0 0 -0.53687,0.0125 14.960308,31.129328 80.416557 0 0 -9.17969,0.86669 14.960308,31.129328 80.416557 0 0 -28.11281,16.8335 c -0.31938,0.72187 -0.44188,1.53856 -0.305,2.38037 l 2.19725,13.59863 c 0.37125,2.29075 2.50118,3.84106 4.773,3.46681 l 13.14693,-2.17287 3.6865,22.75393 c -17.21881,4.683817 -33.03812,12.541317 -46.71631,22.875942 l -7.64156,-9.350563 6.4575,-5.371125 c 1.16631,-0.968812 1.33912,-2.693562 0.37812,-3.869625 l -8.42281,-10.314939 c -0.60062,-0.735 -1.49737,-1.07306 -2.36819,-0.98875 -0.5225,0.05 -1.03962,0.24688 -1.47706,0.61063 l -27.063,22.485372 c -1.16625,0.968812 -1.33912,2.693562 -0.37875,3.869625 l 8.43506,10.314937 c 0.96082,1.176 2.66675,1.335 3.83307,0.36625 l 6.46968,-5.358875 7.89794,9.667938 c -23.23444,23.185062 -37.51219,54.612375 -37.51219,89.221187 0,71.272813 60.57044,129.125996 135.20507,129.125996 50.77075,0 95.01187,-26.76731 118.12743,-66.320808 C 431.15101,133.62444 361.32876,-43.039126 450.49782,-107.73544 l 0.58563,-0.0975 -0.05,-0.305 c 0.0312,-0.025 0.065,-0.05 0.0975,-0.0731 -0.0375,0 -0.0737,0.006 -0.11,0.0125 l -3.67444,-22.66875 12.59769,-2.07519 c 2.27175,-0.37438 3.80118,-2.51888 3.43012,-4.80956 l -2.124,-13.09813 0.0125,0 a 14.960308,31.129328 80.416557 0 0 -0.025,-0.0856 l -0.0731,-0.415 c -0.10125,-0.62125 -0.3325,-1.18425 -0.6595,-1.67238 a 14.960308,31.129328 80.416557 0 0 -22.66844,-8.30075 z m -7.1045,3.03956 c 0.1025,0.006 0.17563,0.025 0.23188,0.05 -8.23107,2.24319 -23.09825,10.91313 -25.62257,15.56394 -2.05,3.77694 -2.03856,9.21631 -2.03856,9.21631 0,0 -0.83637,-4.80993 -0.6225,-9.13087 0.36,-7.275 24.88125,-15.93056 28.05175,-15.69825 z m -40.64944,76.428192 c 5.20263,0.145 9.23144,6.493937 9.021,14.209 -0.21,7.714875 -4.58731,13.890062 -9.79006,13.745125 -5.2025,-0.143125 -9.23125,-6.555188 -9.02094,-14.270063 0.21,-7.714937 4.58744,-13.82725 9.79,-13.684062 z m 72.59525,1.879875 -0.53687,0.549375 -3.08844,3.112812 0,8.313 2.19731,2.209438 1.42819,-1.452625 0,-12.731938 z m -1.42825,14.404312 -0.23187,0.22 -1.96531,1.98975 0,8.313 3.6255,3.649875 0,-12.683125 -1.42825,-1.48925 z m 31.64063,17.138688 0.525,0.549375 2.99075,3.05175 9.79,0 3.52787,-3.601063 -16.8335,0 z m 16.94337,0.0975 -0.54937,0.549375 -2.99075,3.063937 0,8.1665 2.16062,2.172875 1.37944,-1.42825 0,-12.524375 z m -17.05325,0.0125 0,0.769 0,11.743187 1.40382,1.42825 2.16062,-2.172875 0,-8.1665 -3.56444,-3.601062 z m -113.98925,6.518562 c 6.17407,0.170625 10.97944,7.739625 10.73,16.8945 -0.24937,9.155 -5.4595,16.4305629 -11.63331,16.2597504 -6.1735,-0.170625 -10.96744,-7.7273754 -10.71775,-16.8823124 0.24938,-9.15475 5.44756,-16.442813 11.62106,-16.271938 z m 115.39307,7.617188 -0.22,0.244375 -1.18407,1.232875 0,12.475562 3.56444,-3.601062 0,-8.1665 -2.16062,-2.185063 z m 14.28225,0 -0.23188,0.231875 -1.94094,1.953125 0,8.1665 3.54007,3.61325 0,-12.487813 -1.36719,-1.477 z m -12.06057,10.461375 -0.0856,0.0975 -3.44238,3.503437 16.84569,0 -3.52781,-3.601062 -9.79006,0 z M 340.04876,-9.3472506 c 3.14381,27.0571246 13.9855,53.1683126 30.896,74.4140626 -3.56431,2.6155 -6.23875,6.276625 -7.08006,10.754375 -1.16382,6.195375 1.50181,12.16675 5.88381,16.577125 4.38225,4.41025 10.54562,7.585375 17.67575,8.947748 7.13044,1.3615 14.02387,0.68144 19.70212,-1.806623 0.64338,-0.28125 1.28994,-0.579375 1.90432,-0.9155 6.37293,3.907933 13.07725,7.322063 19.97068,10.192873 -0.2325,-1.03556 -0.32625,-2.02869 -0.13437,-3.05181 1.375,-7.318251 13.67725,-11.173938 27.44144,-8.544876 13.76356,2.628938 23.8115,10.748066 22.4365,18.066376 -0.29938,1.59419 -1.14382,3.01775 -2.38038,4.24806 18.27088,0.86444 36.69188,-1.78069 53.99175,-7.77587 -26.66462,22.86487 -63.76231,32.82581 -98.169,26.34275 -30.36719,-5.80075 -58.13181,-24.20957 -75.53706,-49.963378 -17.40494,-25.754 -24.23306,-58.539125 -18.48144,-89.1601251 0.5275,-2.796125 1.15556,-5.5746875 1.87988,-8.3251875 z m 206.71387,6.4086875 -0.54937,0.549375 -4.19919,4.2358125 0,11.3281246 2.89306,2.9175 1.85544,-1.867687 0,-17.1630626 z m -74.56056,19.3603121 0.53688,0.549375 4.72412,4.834 15.49075,0 5.26125,-5.383312 -26.01319,0 z m 72.70513,0.305 -0.22,0.231875 -2.67338,2.685563 0,11.328125 4.74856,4.785187 0,-17.102062 -1.8555,-1.92875 z m -46.25244,0.121875 -0.54938,0.549375 -4.72412,4.834 0,12.902813 3.27144,3.283687 2.002,-2.087375 0,-19.482437 z m -26.89213,0.0125 0,0.769063 0,18.701187 2.07519,2.087375 3.25931,-3.283687 0,-12.902813 -5.3345,-5.371125 z m 24.89013,22.412125 -0.23188,0.231875 -3.0395,3.064 0,12.902813 5.27344,5.383312 0,-19.409187 -2.002,-2.172875 z m -22.81494,0.0125 -0.23187,0.231875 -1.84325,1.928688 0,19.409187 5.3345,-5.38325 0,-12.902875 -3.25932,-3.283687 z m 3.6255,16.626 -0.0856,0.08563 -5.17575,5.285625 26.01318,0 -5.26125,-5.371062 -15.49075,0 z m -85.09519,9.86325 c 1.83257,-0.0375 3.73413,0.1175 5.67625,0.488125 10.3575,1.978375 17.67919,9.3165 16.34519,16.4185 -1.33431,7.102125 -10.8095,11.243625 -21.167,9.265125 -10.35762,-1.978437 -17.6795,-9.328625 -16.34519,-16.430687 1.08407,-5.770375 7.54982,-9.575563 15.49075,-9.741188 z"
       id="path13688"
       inkscape:connector-curvature="0" />
    <path
       id="path13692"
       d="m 464.54888,-113.086 a 5.0173384,5.0592527 0 0 0 -5.01706,5.06012 5.0173384,5.0592527 0 0 0 5.01706,5.05907 5.0173384,5.0592527 0 0 0 5.01832,-5.05907 5.0173384,5.0592527 0 0 0 -5.01832,-5.06012 z m 24.81688,3.03281 a 5.0173384,5.0592527 0 0 0 -5.01706,5.059 5.0173384,5.0592527 0 0 0 5.01706,5.059002 5.0173384,5.0592527 0 0 0 5.017,-5.059002 5.0173384,5.0592527 0 0 0 -5.017,-5.059 z m 23.95694,6.13938 a 5.0173384,5.0592527 0 0 0 -5.01713,5.059059 5.0173384,5.0592527 0 0 0 5.01713,5.058938 5.0173384,5.0592527 0 0 0 5.01706,-5.058938 5.0173384,5.0592527 0 0 0 -5.01706,-5.059059 z m 26.66525,1.94131 c -1.02019,0.0438 -2.01163,0.53625 -2.67619,1.42725 l -15.80956,21.197749 c -1.18138,1.583938 -0.86813,3.817813 0.70268,5.009063 l 3.40738,2.585062 c 1.57087,1.191188 3.78625,0.87525 4.96762,-0.708687 l 15.81088,-21.19775 c 1.18131,-1.583938 0.868,-3.819125 -0.70281,-5.010375 l -3.40857,-2.583752 c -0.68731,-0.52125 -1.49793,-0.75444 -2.29143,-0.71856 z m 13.59375,25.586749 c -2.77075,1.88e-4 -5.01688,2.265125 -5.01707,5.059063 1.9e-4,2.793875 2.24632,5.05875 5.01707,5.058937 2.77081,-1.25e-4 5.01681,-2.265 5.017,-5.058937 -1.9e-4,-2.794 -2.24619,-5.058938 -5.017,-5.059063 z m 16.50493,17.850563 a 5.0173384,5.0592527 0 0 0 -5.01706,5.059 5.0173384,5.0592527 0 0 0 5.01706,5.058937 5.0173384,5.0592527 0 0 0 5.01832,-5.058937 5.0173384,5.0592527 0 0 0 -5.01832,-5.059 z m 13.053,23.517062 a 5.0173384,5.0592527 0 0 0 -5.01706,5.059 5.0173384,5.0592527 0 0 0 5.01706,5.058938 5.0173384,5.0592527 0 0 0 5.01713,-5.058938 5.0173384,5.0592527 0 0 0 -5.01713,-5.059 z m 20.70175,21.967563 c -0.23625,-0.006 -0.47625,0.01875 -0.71762,0.0625 l -25.84869,4.9104999 c -1.9315,0.366875 -3.1935,2.2305625 -2.82962,4.17825 l 0.78937,4.22556252 c 0.36375,1.94762498 2.21206,3.22012498 4.14356,2.85324998 l 25.84869,-4.9105625 c 1.93156,-0.366875 3.19356,-2.2305625 2.82963,-4.178125 l -0.78938,-4.2256879 c -0.31812,-1.704125 -1.77331,-2.891125 -3.42594,-2.915562 z m -10.00943,27.531812 a 5.0173384,5.0592527 0 0 0 -5.017,5.059 5.0173384,5.0592527 0 0 0 5.017,5.058938 5.0173384,5.0592527 0 0 0 5.01831,-5.058938 5.0173384,5.0592527 0 0 0 -5.01831,-5.059 z m -1.94244,24.513875 a 5.0173384,5.0592527 0 0 0 -5.01706,5.058938 5.0173384,5.0592527 0 0 0 5.01706,5.059062 5.0173384,5.0592527 0 0 0 5.01831,-5.059062 5.0173384,5.0592527 0 0 0 -5.01831,-5.058938 z m -7.92956,24.59125 a 5.0173384,5.0592527 0 0 0 -5.01707,5.059 5.0173384,5.0592527 0 0 0 5.01707,5.058938 5.0173384,5.0592527 0 0 0 5.01706,-5.058938 5.0173384,5.0592527 0 0 0 -5.01706,-5.059 z"
       style="font-style:normal;font-variant:normal;font-weight:normal;font-stretch:normal;font-size:medium;line-height:100%;font-family:DS-Digital;-inkscape-font-specification:DS-Digital;text-align:start;writing-mode:lr-tb;text-anchor:start;fill:#192940;fill-opacity:1;stroke:none;stroke-width:0.95354259;stroke-miterlimit:4;stroke-dasharray:none;stroke-opacity:1"
       inkscape:connector-curvature="0" />
    <path
       style="font-style:normal;font-variant:normal;font-weight:bold;font-stretch:normal;font-size:medium;line-height:100%;font-family:Raleway;-inkscape-font-specification:'Raleway, Bold';text-align:center;writing-mode:lr-tb;text-anchor:middle;fill:#192940;fill-opacity:1;fill-rule:nonzero;stroke:none;stroke-width:25.08323669;stroke-linecap:round;stroke-linejoin:round;stroke-miterlimit:4;stroke-dasharray:none;stroke-dashoffset:0;stroke-opacity:1"
       d="m 602.54865,164.45636 0,9.76563 5.15136,0 0,-9.76563 -5.15136,0 z m -277.00195,0.56152 0,30.94483 22.54638,0 0,-5.27344 -16.3208,0 0,-25.67139 -6.22558,0 z m 35.44921,0 -12.21923,30.94483 6.39648,0 2.9419,-7.71485 11.18164,0 2.97851,7.71485 6.39649,0 -12.17042,-30.94483 -5.50537,0 z m 30.61524,0 0,30.94483 6.22558,0 0,-19.82422 16.46729,19.82422 5.05371,0 0,-30.896 -6.22558,0 0,20.26367 -16.68702,-20.3125 -4.83398,0 z m 33.99658,0 0,15.78369 c 0,2.00421 0.23909,3.92714 0.72022,5.78614 0.5112,1.85908 1.32878,3.50835 2.4414,4.93164 1.11263,1.39429 2.55937,2.52217 4.3335,3.39355 1.80425,0.84237 3.97472,1.26953 6.53076,1.26953 2.46579,0 4.58565,-0.40737 6.35986,-1.2207 1.77413,-0.81329 3.22083,-1.92602 4.3335,-3.32031 1.14271,-1.39425 1.96686,-3.01161 2.47803,-4.87061 0.54125,-1.859 0.81787,-3.84878 0.81787,-5.96924 l 0,-15.78369 -6.17676,0 0,15.78369 c 0,1.27805 -0.13241,2.52756 -0.40283,3.74756 -0.24058,1.19092 -0.68686,2.24429 -1.31836,3.17383 -0.60137,0.92946 -1.40679,1.68955 -2.4292,2.27051 -0.99237,0.58092 -2.22527,0.8667 -3.69873,0.8667 -1.44338,0 -2.66978,-0.27825 -3.66211,-0.83008 -0.99233,-0.581 -1.7977,-1.32884 -2.4292,-2.2583 -0.60163,-0.92954 -1.03573,-1.99512 -1.30615,-3.18603 -0.24042,-1.22 -0.36622,-2.4771 -0.36622,-3.78419 l 0,-15.78369 -6.22558,0 z m 34.28955,0 0,30.94483 6.22559,0 0,-30.94483 -6.22559,0 z m 10.15625,0 0,5.27344 10.22949,0 0,25.67139 6.18897,0 0,-25.67139 10.22949,0 0,-5.27344 -26.64795,0 z m 40.23438,0 0,30.94483 11.6333,0 c 2.40567,0 4.5696,-0.37247 6.49414,-1.09864 1.95458,-0.7552 3.62163,-1.801 5.00488,-3.1372 1.38325,-1.36521 2.43992,-2.98256 3.16162,-4.87061 0.7518,-1.91708 1.12305,-4.05582 1.12305,-6.40869 0,-2.12041 -0.32719,-4.11024 -0.98877,-5.96924 -0.66158,-1.88812 -1.65543,-3.52522 -2.97852,-4.91943 -1.32312,-1.39429 -2.97143,-2.50698 -4.95605,-3.32031 -1.95467,-0.8133 -4.24423,-1.22071 -6.86035,-1.22071 l -11.6333,0 z m 32.23877,0 0,30.94483 22.24121,0 0,-5.27344 -16.01563,0 0,-8.06885 13.48877,0 0,-4.8706 -13.48877,0 0,-7.4585 15.6128,0 0,-5.27344 -21.83838,0 z m 37.97607,0 0,30.94483 22.54639,0 0,-5.27344 -16.32081,0 0,-25.67139 -6.22558,0 z m -63.98925,5.27344 5.40771,0 c 1.50354,0 2.84336,0.25088 4.01611,0.74463 1.20283,0.49383 2.20322,1.18694 3.01514,2.0874 0.81192,0.9005 1.43451,1.97366 1.85547,3.22266 0.421,1.24904 0.63476,2.62018 0.63476,4.10156 0,1.45237 -0.21376,2.80369 -0.63476,4.05274 -0.42096,1.249 -1.04355,2.34194 -1.85547,3.27148 -0.78183,0.90042 -1.76348,1.61335 -2.96631,2.13623 -1.17279,0.52283 -2.53136,0.78125 -4.06494,0.78125 l -5.40771,0 0,-20.39795 z m -152.771,1.5747 4.43115,12.15821 -9.0332,0 4.60205,-12.15821 z m 205.37109,31.78712 c -0.87454,0 -2.25193,0.025 -4.12598,0.0854 -1.87404,0.06 -3.96312,0.18496 -6.27441,0.36621 -2.31134,0.12083 -4.75085,0.29586 -7.31201,0.53711 -2.56117,0.18104 -4.96553,0.43075 -7.21436,0.73241 -2.24887,0.24139 -4.20941,0.54124 -5.896,0.90333 -1.68662,0.36204 -2.84204,0.7495 -3.46679,1.17187 -0.74958,0.48271 -1.43832,1.44486 -2.06299,2.89307 -0.6247,1.38787 -1.22006,3.04955 -1.78222,4.98047 -0.49975,1.93091 -0.96652,4.01737 -1.40382,6.25 -0.43712,2.23266 -0.81054,4.43171 -1.12304,6.604 -0.31221,2.11196 -0.56934,4.09866 -0.75684,5.96924 -0.1875,1.81021 -0.28076,3.2969 -0.28076,4.44336 0,2.112 0.12842,4.33616 0.37842,6.68945 0.31233,2.35333 0.68579,4.7397 1.12304,7.15332 0.49975,2.35338 1.09507,4.67726 1.78223,6.97022 0.68713,2.23262 1.43397,4.3442 2.2461,6.33545 0.31254,0.72412 0.66301,1.48609 1.03759,2.27051 0.3748,0.78445 0.80645,1.5091 1.30616,2.17285 0.43733,0.60337 1.4994,1.11571 3.18603,1.53808 1.74904,0.36213 3.77994,0.6871 6.09131,0.98877 2.37375,0.24155 4.90669,0.45393 7.59277,0.63476 2.68617,0.12084 5.24198,0.20815 7.67823,0.26856 2.49866,0.0604 4.71633,0.12269 6.65283,0.18311 l 4.12598,0 c 2.43624,0 5.06249,0.0372 7.87353,0.0976 2.81104,0.0604 5.61181,-0.0645 8.42285,-0.36621 2.81109,-0.30171 5.50768,-0.8764 8.06885,-1.72119 2.62367,-0.90512 4.86424,-2.2669 6.73828,-4.07715 0.31217,-0.30167 0.62744,-1.11386 0.93994,-2.4414 0.31217,-1.32755 0.59229,-2.8895 0.84229,-4.69971 0.31229,-1.87058 0.56933,-3.89461 0.75683,-6.06689 0.24958,-2.1723 0.43653,-4.22143 0.56153,-6.15235 0.1875,-1.99125 0.30371,-3.74044 0.36621,-5.24902 0.125,-1.50855 0.21826,-2.57045 0.28076,-3.17383 0.0625,-0.72408 0.0976,-1.44873 0.0976,-2.17285 l 0,-2.35596 c 0,-0.78442 -0.0351,-1.83408 -0.0976,-3.16162 -0.0625,-1.32754 -0.15577,-2.77687 -0.28076,-4.3457 -0.0625,-1.62921 -0.17871,-3.316 -0.36621,-5.06592 -0.125,-1.74988 -0.28858,-3.41155 -0.47608,-4.98047 -0.18729,-1.56888 -0.43213,-2.95576 -0.74463,-4.1626 -0.24966,-1.26712 -0.52978,-2.24148 -0.84228,-2.90527 -0.37479,-0.78442 -1.32057,-1.49689 -2.81982,-2.16064 -1.49925,-0.6638 -3.30826,-1.27581 -5.43214,-1.81885 -2.06145,-0.54304 -4.30207,-0.9929 -6.73828,-1.35499 -2.43629,-0.42253 -4.8406,-0.75972 -7.21435,-1.00097 -2.37379,-0.30154 -4.59142,-0.50173 -6.65283,-0.62256 -1.99896,-0.12083 -3.59824,-0.1831 -4.78516,-0.1831 z m -153.39356,0.1831 -36.6333,0.1709 c 0.62455,11.58554 1.05616,23.11768 1.30616,34.58252 0.24971,11.46491 0.54199,22.98477 0.85449,34.57031 l 20.23926,0.54932 c 0.37479,-8.14608 0.84164,-16.22995 1.40381,-24.25537 0.6247,-8.08575 1.22001,-16.20695 1.78222,-24.35303 1.56171,3.74117 3.11359,7.45198 4.67529,11.13281 1.56167,3.68084 3.21919,7.36653 4.96827,11.04737 2.37375,5.00829 4.75507,9.98115 7.1289,14.92919 2.37375,4.88767 4.74291,9.83546 7.1167,14.84375 1.87405,-0.30187 3.75345,-0.53938 5.62744,-0.72021 1.93651,-0.18125 3.83885,-0.26856 5.71289,-0.26856 3.81055,0 7.65044,0.0873 11.52344,0.26856 0.0625,-5.31004 0.0977,-10.53258 0.0977,-15.66162 0.0625,-5.18934 0.0854,-10.43703 0.0854,-15.74707 0,-6.27554 -0.0933,-12.52263 -0.28076,-18.73779 -0.18725,-6.21513 -0.40919,-12.46226 -0.65919,-18.7378 l -18.92089,-2.17285 c 0.125,7.60304 0.27636,15.1495 0.46386,22.63184 0.25,7.48233 0.41358,14.99147 0.47608,22.53418 -1.81155,-4.70667 -3.62055,-9.37963 -5.43213,-14.02588 -1.81158,-4.70667 -3.44606,-9.44203 -4.88281,-14.20899 -0.99946,-3.13775 -2.06158,-6.22363 -3.18604,-9.24072 -1.06195,-3.07738 -2.21746,-6.11373 -3.4668,-9.13086 z m -49.6582,3.79639 c -6.87145,0.48271 -13.67582,0.90744 -20.42236,1.26953 -6.684,0.30183 -13.43022,0.57662 -20.23926,0.81787 0.125,2.53433 0.21826,5.05844 0.28076,7.59278 0.125,2.474 0.24121,4.98515 0.36621,7.51953 l 8.91113,1.08642 c 0.4375,5.61175 0.83392,11.19663 1.2085,16.74805 0.43709,5.55141 0.81055,11.16141 1.12305,16.8335 l -6.0791,0.0854 c 0.1875,2.95675 0.30371,5.88048 0.36621,8.77685 0.0625,2.83604 0.0977,5.7347 0.0977,8.6914 l 33.64257,-0.5371 c -0.31225,-1.44821 -0.53418,-2.93487 -0.65918,-4.44336 -0.0625,-1.50854 -0.0977,-3.00806 -0.0977,-4.51661 l 0,-5.43212 c -10e-6,-1.81021 0.0703,-3.59676 0.19531,-5.34668 l -9.5581,-0.18311 c -0.0625,-2.53433 -0.13282,-5.00817 -0.19532,-7.42187 l 0,-7.50733 0,-6.25 c 0.0625,-2.05162 0.13282,-4.12587 0.19532,-6.23779 l 10.40038,0.354 c 0.125,-3.6205 0.14795,-7.23159 0.0854,-10.85205 -0.0625,-3.68083 0.0659,-7.36653 0.37842,-11.04736 z m 122.19238,0.18311 c -3.62316,0 -7.21814,0.0623 -10.7788,0.1831 -3.49821,0.0604 -7.05807,0.11048 -10.68116,0.1709 l 0,18.20068 0,8.05664 c 0,7.05996 -0.0351,14.08192 -0.0976,21.08155 -0.0625,6.9392 -0.24902,13.94834 -0.56152,21.0083 l 24.64599,-0.81787 c 0,-4.52567 -0.12842,-9.02357 -0.37842,-13.48878 -0.24983,-4.52558 -0.6814,-9.04855 -1.30615,-13.57421 2.81108,-0.54309 5.62401,-0.96787 8.43506,-1.26954 2.87354,-0.36208 5.70947,-0.84922 8.5205,-1.45263 l -2.6245,-9.04541 -15.55176,-1.00098 -0.74463,-7.77588 c 5.37216,-0.48295 10.67068,-0.82014 15.91797,-1.00097 5.30979,-0.18105 10.69077,-0.41855 16.12549,-0.72022 0,-2.95675 -0.18695,-5.88048 -0.56153,-8.77685 -0.31258,-2.95675 -0.66301,-5.89269 -1.0376,-8.78906 -4.93495,-0.24117 -9.83697,-0.45352 -14.70947,-0.63477 -4.87246,-0.24125 -9.73932,-0.354 -14.61182,-0.354 z m 78.13721,20.17822 c 0.87459,0 2.38048,0.0372 4.50439,0.0977 2.12388,0 4.30635,0.0877 6.55519,0.26856 2.31128,0.18104 4.41257,0.48094 6.28661,0.90332 1.9365,0.42237 3.15012,0.99707 3.6499,1.72119 0.68705,1.02579 1.09571,2.23766 1.22071,3.62549 0.125,1.32754 0.18311,2.58959 0.18311,3.79639 0,0.66378 -0.0352,1.75073 -0.0977,3.25927 0,1.44817 -0.0581,2.98505 -0.18311,4.61426 -0.125,1.56887 -0.31152,3.04328 -0.56152,4.43115 -0.24967,1.32754 -0.56494,2.20214 -0.93994,2.62452 -0.49979,0.54303 -1.62006,1.03026 -3.36914,1.45263 -1.68663,0.36212 -3.56598,0.69931 -5.62745,1.00098 -1.99895,0.24125 -3.9365,0.41627 -5.81054,0.5371 -1.81154,0.12084 -3.08338,0.18311 -3.83301,0.18311 l -2.34375,0 c -1.06191,-0.0604 -2.31081,-0.12269 -3.74756,-0.18311 -1.37433,-0.12041 -2.80987,-0.24537 -4.30908,-0.36621 -1.49921,-0.12083 -2.93479,-0.27082 -4.30908,-0.45165 -1.31183,-0.24155 -2.44435,-0.47897 -3.38135,-0.72022 -0.93696,-0.24137 -1.49707,-0.5162 -1.68457,-0.81787 -0.31221,-0.42238 -0.55713,-1.08458 -0.74463,-1.98975 -0.125,-0.90508 -0.25342,-1.86723 -0.37842,-2.89306 -0.125,-1.0258 -0.21826,-2.02527 -0.28076,-2.99072 l 0,-2.17286 c 0,-0.54308 0.0352,-1.41767 0.0977,-2.62451 0.0625,-1.26713 0.15576,-2.5665 0.28076,-3.89405 0.18708,-1.38783 0.37402,-2.64992 0.56152,-3.79638 0.25009,-1.20687 0.55315,-2.01903 0.92774,-2.4414 0.37479,-0.54305 1.37876,-0.9929 3.00293,-1.35498 1.62416,-0.4225 3.37498,-0.75973 5.24902,-1.00099 1.9365,-0.30153 3.74546,-0.51393 5.43213,-0.63476 1.74908,-0.12083 2.96278,-0.1831 3.6499,-0.1831 z"
       id="path13632"
       inkscape:connector-curvature="0" />
  </g>
</svg>
